<svg xmlns="http://www.w3.org/2000/svg" width="24" height="24" viewBox="0 0 24 24" fill="none">
<g clip-path="url(#clip0_74_3077)">
<path fill-rule="evenodd" clip-rule="evenodd" d="M11.559 0.434964C11.226 0.542964 11.034 0.734964 10.941 1.04846C10.8885 1.22396 10.8795 1.63196 10.8795 3.76196C10.8795 6.58346 10.8765 6.54746 11.1645 6.83546C11.55 7.21946 12.45 7.21946 12.8355 6.83546C13.1235 6.54746 13.1205 6.58346 13.1205 3.76196C13.1205 1.03196 13.116 0.983964 12.894 0.719964C12.708 0.499464 12.5085 0.425964 12.06 0.413964C11.8927 0.404536 11.7249 0.41157 11.559 0.434964ZM4.12946 3.39896C3.89246 3.50696 3.54296 3.84896 3.42146 4.09196C3.35949 4.21344 3.32568 4.34732 3.32257 4.48366C3.31945 4.62 3.3471 4.75528 3.40346 4.87946C3.51446 5.12696 7.00046 8.62496 7.27496 8.76446C7.66346 8.96396 8.06246 8.86646 8.46446 8.47346C8.86046 8.08646 8.96546 7.66646 8.76446 7.27496C8.62496 7.00046 5.12696 3.51446 4.87946 3.40346C4.76119 3.35225 4.6338 3.32545 4.50492 3.32468C4.37604 3.32391 4.24834 3.34917 4.12946 3.39896ZM19.2795 3.42296C19.095 3.50846 18.78 3.80396 17.277 5.31146C15.8955 6.69596 15.474 7.14296 15.4065 7.28996C15.3504 7.41185 15.3215 7.54446 15.3217 7.67863C15.322 7.81279 15.3514 7.9453 15.408 8.06696C15.513 8.29196 15.858 8.64596 16.0905 8.76746C16.326 8.89046 16.6755 8.88896 16.92 8.76446C17.1705 8.63546 20.6355 5.17046 20.7645 4.91996C20.8259 4.791 20.8582 4.65007 20.8589 4.50722C20.8597 4.36436 20.829 4.22309 20.769 4.09346C20.6029 3.81587 20.3685 3.58552 20.088 3.42446C19.9638 3.35741 19.825 3.32217 19.6839 3.32191C19.5428 3.32165 19.4038 3.35637 19.2795 3.42296ZM1.04846 10.938C0.605963 11.0775 0.386963 11.43 0.386963 11.9985C0.388463 12.579 0.604463 12.927 1.04696 13.059C1.22396 13.1115 1.61846 13.1205 3.76196 13.1205C5.99546 13.1205 6.29396 13.113 6.47696 13.053C6.61139 13.0088 6.73355 12.9337 6.8336 12.8336C6.93365 12.7336 7.00879 12.6114 7.05296 12.477C7.18196 12.0795 7.11746 11.5155 6.91196 11.2365C6.82959 11.1469 6.73274 11.0719 6.62546 11.0145L6.41996 10.9005L3.82046 10.8915C1.72796 10.8855 1.18646 10.8945 1.04846 10.938ZM17.6175 10.917C17.4146 10.9728 17.2313 11.084 17.088 11.238C16.8825 11.5155 16.818 12.0795 16.947 12.477C17.034 12.747 17.253 12.966 17.523 13.053C17.706 13.113 18.0045 13.1205 20.238 13.1205C22.3815 13.1205 22.776 13.1115 22.953 13.059C23.3955 12.927 23.6115 12.579 23.613 11.9985C23.613 11.421 23.3925 11.0745 22.935 10.9365C22.7805 10.89 22.296 10.881 20.244 10.884C18.867 10.887 17.685 10.902 17.6175 10.917ZM7.27946 15.423C7.09496 15.5085 6.77996 15.804 5.27696 17.3115C3.89546 18.696 3.47396 19.143 3.40646 19.29C3.35038 19.4118 3.32146 19.5445 3.32172 19.6786C3.32198 19.8128 3.35141 19.9453 3.40796 20.067C3.51296 20.292 3.85796 20.646 4.09046 20.7675C4.32596 20.8905 4.67546 20.889 4.91996 20.7645C5.17046 20.6355 8.63546 17.1705 8.76446 16.92C8.8259 16.791 8.85816 16.6501 8.85894 16.5072C8.85971 16.3644 8.82899 16.2231 8.76896 16.0935C8.60295 15.8159 8.36847 15.5855 8.08796 15.4245C7.96382 15.3574 7.82499 15.3222 7.6839 15.3219C7.54281 15.3216 7.40385 15.3564 7.27946 15.423ZM16.1295 15.399C15.8925 15.507 15.543 15.849 15.4215 16.092C15.3595 16.2134 15.3257 16.3473 15.3226 16.4837C15.3194 16.62 15.3471 16.7553 15.4035 16.8795C15.5145 17.127 19.0005 20.625 19.275 20.7645C19.6635 20.964 20.0625 20.8665 20.4645 20.4735C20.8605 20.0865 20.9655 19.6665 20.7645 19.275C20.625 19.0005 17.127 15.5145 16.8795 15.4035C16.7612 15.3523 16.6338 15.3255 16.5049 15.3247C16.376 15.3239 16.2483 15.3492 16.1295 15.399ZM11.6175 16.9155C11.4148 16.9726 11.2317 17.0841 11.088 17.238C10.881 17.517 10.8795 17.5365 10.8795 20.2335C10.8795 22.3815 10.8885 22.776 10.941 22.953C11.073 23.3955 11.4225 23.6115 12 23.6115C12.5775 23.6115 12.927 23.3955 13.059 22.953C13.152 22.635 13.1505 17.8125 13.056 17.535C13.0269 17.4231 12.9737 17.3189 12.9001 17.2298C12.8265 17.1406 12.7343 17.0687 12.63 17.019C12.465 16.929 12.369 16.9065 12.0855 16.896C11.9292 16.8866 11.7724 16.8931 11.6175 16.9155Z" fill="#FFBD34"/>
</g>
<defs>
<clipPath id="clip0_74_3077">
<rect width="24" height="24" fill="white"/>
</clipPath>
</defs>
</svg>