<svg xmlns="http://www.w3.org/2000/svg" width="24" height="24" viewBox="0 0 24 24" fill="none">
<path fill-rule="evenodd" clip-rule="evenodd" d="M22.56 16.3001L14.89 3.58006C14.2597 2.59406 13.1702 1.99744 12 1.99744C10.8297 1.99744 9.74026 2.59406 9.10998 3.58006L1.43998 16.3001C0.888525 17.2193 0.869464 18.3629 1.38998 19.3001C1.99195 20.3552 3.11521 21.0047 4.32998 21.0001H19.67C20.8765 21.0129 21.9978 20.3798 22.61 19.3401C23.1461 18.3927 23.1269 17.2293 22.56 16.3001ZM12 17.0001C11.4477 17.0001 11 16.5523 11 16.0001C11 15.4478 11.4477 15.0001 12 15.0001C12.5523 15.0001 13 15.4478 13 16.0001C13 16.5523 12.5523 17.0001 12 17.0001ZM12 14.0001C12.5523 14.0001 13 13.5523 13 13.0001V9.00006C13 8.44778 12.5523 8.00006 12 8.00006C11.4477 8.00006 11 8.44778 11 9.00006V13.0001C11 13.5523 11.4477 14.0001 12 14.0001Z" fill="#FF4E62"/>
</svg>